<svg width="100%" height="100%" viewBox="0 0 699 284" fill="none" xmlns="http://www.w3.org/2000/svg">
<g clip-path="url(#clip0_6_2)">
<path fill-rule="evenodd" clip-rule="evenodd" d="M89.7621 268.717C122.316 284.79 158.402 289.465 194.386 274.509C239.737 255.658 241.185 248.002 298.409 253.972C296.394 252.118 296.571 251.542 293.057 249.543C291.067 248.417 288.594 247.612 286.375 246.875C252.762 235.773 225.975 247.299 195.292 260.265C137.848 284.52 97.3332 266.311 89.7536 268.717H89.7621Z" fill="#333333"/>
<path fill-rule="evenodd" clip-rule="evenodd" d="M133.25 23.3656C148.223 21.9936 198.197 18.2842 212.586 16.8191L138.5 16.1247C57.5889 13.6264 3.59995 86.5517 17.582 158.723C25.077 148.323 22.3246 151.669 36.2728 146.858C28.5661 87.3139 77.6855 28.7517 133.25 23.3571V23.3656ZM49.8653 221.037C71.6726 243.564 104.439 260.061 143.912 259.265C181.336 258.512 198.265 243.623 229.075 235.332C225.264 235.121 229.075 235.332 191.431 233.283C157.157 243.081 119.699 250.415 82.03 221.045C41.6251 221.029 53.058 221.037 49.8568 221.037H49.8653Z" fill="url(#paint0_linear_6_2)"/>
<path fill-rule="evenodd" clip-rule="evenodd" d="M255.692 142.709C261.282 87.5171 221.249 37.2629 158.961 25.0509C186.722 32.3087 209.935 52.0157 225.137 71.7735C217.379 76.4652 209.097 80.2254 200.501 83.1895C196.393 71.5194 190.347 60.8402 181.48 48.518C189.415 60.1627 194.827 71.8074 198.663 83.8077C180.963 89.6428 162.044 92.1496 143.802 92.3867C143.599 75.2965 142.675 56.4872 142.565 39.6003C142.235 57.1817 142.1 74.7715 142.21 92.3952C120.546 92.5222 99.9331 89.4903 83.5883 85.095C87.7973 70.8165 94.0812 57.7745 103.211 47.2985C92.8617 57.9777 85.697 70.1814 81.1492 84.426C73.7305 82.3172 67.2772 79.929 62.1112 77.4476C67.9548 80.6404 74.2048 83.3843 80.7512 85.6878C76.3304 100.161 74.552 116.718 74.8653 135.866L43.6068 136.45L74.8738 136.67C76.1357 136.679 74.8738 136.67 76.1357 136.679L143.006 137.145C143.09 139.905 143.175 142.666 143.277 145.419C143.26 142.607 143.26 139.855 143.285 137.145L208.055 137.593C208.529 137.593 208.055 137.593 208.529 137.593L247.359 137.864L247.308 132.758C247.41 135.535 247.401 138.423 247.223 141.464C255.709 142.709 247.223 141.464 255.709 142.709H255.692ZM208.36 133.359C207.581 113.923 205.701 99.4158 201.568 86.3823C211.061 83.2742 219.649 79.4039 226.898 74.8562L225.137 71.782C235.503 85.2559 242.134 98.7553 243.937 108.342C245.343 115.837 246.927 123.62 247.274 132.622L208.351 133.351L208.36 133.359ZM199.637 87.0005C203.956 101.652 206.073 116.887 207.648 133.367L143.294 134.57C143.438 121.435 143.903 109.053 143.819 95.3593V95.3508C163.543 95.1475 182.911 92.2258 199.637 86.992V87.0005ZM83.1733 86.5178C101.525 92.6323 122.028 95.4355 142.218 95.3762C142.32 108.435 142.548 121.503 142.921 134.587L76.1611 135.84C76.7454 119.114 78.7525 102.109 83.1733 86.5178Z" fill="url(#paint1_linear_6_2)"/>
<path fill-rule="evenodd" clip-rule="evenodd" d="M287.594 12.3984C286.993 12.1105 285.74 10.3574 277.957 9.61215C275.332 9.35808 267.439 9.90009 257.437 10.603L237.391 0.525069L230.624 0L245.784 11.3991C239.271 11.8225 232.428 12.2206 225.873 12.4661L214.889 3.74323L211.112 3.89567L219.039 15.9977L214.483 20.3591L219.183 20.6809L223.155 17.9116C230.32 18.9025 239.042 19.6393 249.374 19.7324L241.388 31.8513L247.308 30.9875L259.351 19.6901C287.146 19.2074 290.457 15.9807 291.253 15.0576C292.125 14.0414 288.196 12.6863 287.594 12.4069V12.3984Z" fill="#FF0000"/>
<path fill-rule="evenodd" clip-rule="evenodd" d="M217.379 232.309C217.447 231.022 218.091 232.038 218.345 229.582C222.901 229.557 250.729 229.184 253.931 229.624C254.176 230.099 254.21 230.852 254.439 231.301C254.778 231.97 254.972 231.742 255.353 232.436L243.556 232.385C235.604 232.368 224.908 232.546 217.388 232.318L217.379 232.309ZM171.681 221.316C173.79 220.199 180.082 218.429 182.25 218.251L182.115 220.834L179.439 221.647C178.948 221.757 179.007 221.782 178.888 221.825C178.888 221.825 178.414 221.994 178.312 222.028L174.442 223.12C173.383 223.501 172.791 223.544 171.563 223.628L171.69 221.325L171.681 221.316ZM190.728 220.232C190.745 219.25 190.711 217.37 190.914 216.472C191.193 215.27 192.193 215.253 194.327 214.313L198.621 213.042L198.46 218.606C197.376 218.92 198.409 218.861 196.698 219.081C194.928 219.309 193.658 220.038 190.728 220.224V220.232ZM279.346 219.513C279.532 218.962 279.583 217.853 280.921 217.573C281.446 217.463 281.98 217.548 282.505 217.607C282.522 218.183 282.03 219.572 281.776 220.224C280.743 222.926 281.302 221.215 280.557 222.443C278.406 222.511 275.23 222.976 273.384 222.29C273.104 220.995 273.367 220.19 274.087 219.309L275.12 218.556C275.492 218.446 276.5 218.412 276.89 218.378L276.602 220.707L278.694 220.724L279.346 219.521V219.513ZM162.306 186.086C163.754 185.739 163.704 185.197 164.661 184.087C164.965 183.74 164.906 183.825 165.143 183.554C165.44 183.224 165.033 183.698 165.389 183.291L169.327 178.879C169.564 178.591 169.649 178.422 169.86 178.159L170.343 177.617C170.377 177.575 170.428 177.524 170.462 177.482L175.882 171.011C175.916 170.969 175.966 170.918 176 170.876L179.108 167.158C179.354 166.853 179.261 166.93 179.523 166.574C179.557 166.531 179.6 166.472 179.625 166.438L183.572 162.026C183.605 161.984 183.665 161.933 183.699 161.899L186.138 158.766C186.561 158.283 186.18 158.749 186.578 158.207L186.781 157.91C186.815 157.868 186.857 157.809 186.891 157.766L192.811 151.017C192.845 150.974 192.896 150.923 192.938 150.881L195.208 147.917L195.174 205.785C194.742 206.996 191.532 207.893 190.101 208.512L186.087 209.943C186.036 209.968 185.968 210.002 185.917 210.027C185.867 210.053 185.79 210.087 185.74 210.112L169.945 217.311C169.691 217.421 169.445 217.522 169.217 217.624C169.166 217.649 169.098 217.683 169.047 217.709L164.017 219.902C163.407 220.292 161.078 221.088 160.731 222.053C161.019 222.57 161.222 222.773 161.84 222.976C161.637 225.271 160.443 227.287 161.874 231.234L162.67 232.673C162.967 233.232 162.84 232.953 162.984 233.52L156.234 234.079L155.54 234.824L167.946 235.883C168.649 235.9 169.674 235.866 170.335 235.976C174.036 236.594 181.514 236.408 185.782 236.433C186.569 236.442 187.416 236.425 188.195 236.45C189.373 236.484 189.119 236.662 190.033 236.713C197.909 237.136 217.718 236.865 226.771 236.865L254.193 236.781C256.92 236.764 260.892 236.942 263.475 236.704C264.153 236.637 264.043 236.493 265.084 236.45C269.115 236.289 275.289 236.645 278.931 236.256C282.793 235.849 287.611 235.993 291.465 235.502C292.134 235.417 293.15 235.417 293.861 235.383C295.53 235.307 296.377 235.044 298.02 234.824L297.503 234.079C295.182 233.944 293.709 233.596 291.465 233.52C289.839 233.461 286.324 233.537 284.969 233.258C282.166 232.682 275.137 232.868 271.775 232.876C271.893 231.979 271.817 232.385 272.215 231.936C272.901 231.157 273.282 230.7 273.502 229.709C276.288 229.582 279.727 230.039 282.115 228.82L283.656 227.812C283.75 227.727 284.054 227.321 284.114 227.228L284.952 225C285.35 222.494 285.579 220.935 285.553 218.158C285.536 216.43 285.223 212.856 284.537 211.772L236.62 211.645C236.349 212.009 236.443 211.967 235.943 212.153V212.526C236.459 212.873 236.061 212.323 236.341 213.288C236.917 215.278 237.975 217.582 239.551 219.36L240.033 219.894C241.744 221.655 241.786 221.164 244.208 221.731C247.156 222.417 259.91 222.079 261.629 221.088L262.45 220.597C263.17 220.105 262.527 220.631 263.213 219.826C263.246 219.784 263.297 219.733 263.323 219.69L266.431 215.227C266.465 215.185 266.515 215.126 266.549 215.083C266.575 215.041 266.626 214.973 266.651 214.931C266.837 214.609 266.693 214.999 266.846 214.448L270.657 214.465C270.352 215.651 269.327 217.666 268.489 218.573L265.44 222.578C263.119 224.797 261.172 224.399 257.894 224.492C256.692 224.526 256.243 224.763 254.989 224.78L234.478 224.806C231.963 224.78 230.43 224.543 228.092 224.518L217.972 224.331C216.236 224.306 213.78 224.103 212.467 223.408L210.231 220.859C210.087 220.529 209.833 219.682 209.783 219.538C208.148 215.21 209.071 209.968 208.309 205.268C208.199 204.599 207.699 203.634 207.403 203.058L206.361 201.796C206.319 201.762 206.251 201.72 206.209 201.686L205.887 201.482C205.836 201.457 205.777 201.415 205.726 201.398C204.811 201 203.914 201.33 203.151 201.686C202.178 202.143 201.983 202.677 200.789 202.66V177.693L203.854 177.727C205.099 180.768 205.396 179.988 209.342 180.59L209.427 183.291C210.087 183.384 209.732 183.207 209.969 183.622L212.052 183.579C212.298 183.097 212.027 183.368 212.645 183.207C212.95 179.184 212.713 179.938 211.485 178.235C210.545 178.218 209.605 178.218 208.665 178.176C208.284 178.159 207.699 178.142 207.335 178.066C205.989 177.795 207.411 177.998 206.285 177.685C206.531 177.075 206.556 177.304 207.2 176.999L207.97 176.499C209.435 175.136 208.843 172.663 208.868 170.825C208.902 167.785 209.224 164.457 208.97 161.476L207.877 160.874C207.267 160.595 207.005 160.764 206.37 160.392L206.429 159.909C207.733 159.324 210.494 159.663 212.086 159.629L212.095 157.758C209.698 157.554 206.691 157.792 204.608 158.181L204.269 160.019L201.796 160.222L200.763 161.145C200.543 163.381 200.272 164.626 200.204 166.946C200.162 168.572 200.391 172.019 199.891 173.264C199.019 171.977 198.722 168.657 198.671 166.946C198.587 163.864 198.756 162.5 199.146 159.672C200.204 159.257 200.611 158.528 201.737 158.232C201.856 155.624 201.847 150.932 202.864 148.535L205.133 144.301L208.809 141.946C207.665 141.43 198.29 141.862 196.148 141.862L195.131 142.963C195.098 143.005 195.055 143.064 195.021 143.107L194.081 144.47C193.607 145.402 193.184 145.613 192.532 146.418L191.549 147.714C191.515 147.756 191.473 147.807 191.439 147.849C191.405 147.892 191.354 147.942 191.321 147.985L190.406 149.094C190.059 149.585 190.262 149.382 189.889 149.839C189.838 149.899 189.686 150.051 189.644 150.102L185.477 155.285C185.443 155.327 185.418 155.395 185.384 155.437L179.083 163.754C179.049 163.796 178.998 163.847 178.956 163.889L178.702 164.16C178.668 164.203 178.617 164.262 178.583 164.304L177.271 166.032C177.237 166.074 177.186 166.125 177.152 166.167C177.118 166.21 177.067 166.26 177.042 166.303L167.455 178.921C167.057 179.506 167.388 179.125 166.947 179.65L162.289 186.111L162.306 186.086ZM278.694 220.715L276.602 220.698L276.89 218.369C276.492 218.403 275.492 218.437 275.12 218.547L274.087 219.301C273.367 220.182 273.104 220.986 273.384 222.282C275.23 222.959 278.406 222.494 280.557 222.434C281.302 221.206 280.743 222.926 281.776 220.216C282.022 219.563 282.513 218.175 282.505 217.599C281.988 217.539 281.454 217.455 280.921 217.565C279.583 217.853 279.532 218.962 279.346 219.504L278.694 220.707V220.715ZM171.681 221.316L171.554 223.62C172.782 223.535 173.375 223.493 174.434 223.112L178.304 222.019C178.406 221.986 178.88 221.816 178.88 221.816C178.998 221.774 178.931 221.757 179.43 221.638L182.106 220.825L182.242 218.242C180.074 218.42 173.782 220.199 171.673 221.308L171.681 221.316ZM190.728 220.232C193.658 220.046 194.928 219.318 196.698 219.089C198.409 218.869 197.376 218.928 198.46 218.615L198.621 213.051L194.327 214.321C192.184 215.261 191.185 215.278 190.914 216.481C190.711 217.378 190.745 219.259 190.728 220.241V220.232Z" fill="#333333"/>
<path fill-rule="evenodd" clip-rule="evenodd" d="M277.906 204.523C277.898 203.43 278.152 203.1 278.473 202.16L280.294 199.467L283.597 198.12C283.648 199.416 283.495 199.518 283.224 200.449C282.691 202.304 282.505 203.108 280.667 203.938L279.608 204.362C279.032 204.523 278.499 204.514 277.906 204.531V204.523ZM279.337 179.734C279.507 181.03 278.516 185.4 278.075 186.755C277.076 189.829 277.686 189.626 276.043 193.674C275.467 195.088 274.358 199.001 273.748 200.085C273.468 200.576 273.765 200.094 273.341 200.686L270.606 204.718C270.115 205.293 270.428 204.726 270.106 205.454C251.06 205.531 233.589 205.437 214.449 204.98C214.771 205.725 214.771 205.751 215.635 205.996C216.312 206.191 216.583 206.191 217.269 206.437C218.412 206.843 219.335 206.987 220.538 207.326C227.093 209.147 238.272 208.96 245.148 209.037C250.111 209.096 281.192 210.112 283.402 209.13C284.732 208.537 285.02 208.08 285.138 206.767C285.536 202.566 285.113 185.976 285.062 182.233L288.636 179.413C289.254 178.049 289.364 167.48 287.908 166.057C286.917 165.092 285.172 165.041 283.69 165.126C283.809 165.871 283.97 166.074 284.19 166.523C285.367 168.937 285.299 172.578 285.181 175.195C285.147 175.847 285.105 176.499 285.045 177.151C284.961 178.032 285.147 178.261 284.546 178.49C284.139 176.355 284.122 173.315 283.097 169.927L282.547 168.005C282.53 167.954 282.496 167.895 282.479 167.844L281.717 166.159C281.522 165.659 281.59 165.668 281.344 165.253L281.023 164.821C279.803 163.076 280.879 164.397 279.388 163.144C279.346 163.11 279.295 163.059 279.253 163.017C279.21 162.983 279.159 162.932 279.117 162.898L278.541 162.441C276.983 161.399 273.011 160.908 271.156 160.417C268.37 159.68 263.899 159.977 261.061 159.401C259.037 158.994 244.158 158.156 240.652 157.732C237.069 157.309 222.156 156.648 219.166 157.521L217.743 157.969C217.701 157.995 217.642 158.046 217.599 158.08C216.05 159.299 216.625 163.161 217.032 165.024C217.845 168.742 217.15 173.62 219.158 175.796C219.208 175.847 219.369 176 219.42 176.042L219.7 176.288C221.334 177.558 223.392 177.558 225.696 177.643L246.961 178.718C249.976 179.192 254.185 179.048 257.64 179.133C259.622 179.184 260.943 179.43 262.696 179.446L279.329 179.726L279.337 179.734ZM277.906 204.523C278.499 204.506 279.024 204.523 279.608 204.353L280.667 203.93C282.505 203.1 282.691 202.295 283.224 200.441C283.495 199.518 283.648 199.416 283.597 198.112L280.294 199.458L278.473 202.151C278.152 203.083 277.906 203.422 277.906 204.514V204.523Z" fill="#333333"/>
<path fill-rule="evenodd" clip-rule="evenodd" d="M218.175 139.99L224.95 140.583C227.152 140.829 230.497 140.456 232.598 140.837C234.613 141.201 237.721 141.015 239.703 141.396L242.938 141.836C244.835 142.226 247.647 142.404 249.417 142.903C250.035 143.081 250.298 143.039 251.009 143.174C252.025 143.369 251.28 143.42 252.593 143.581C253.262 143.666 253.634 143.64 254.253 143.835L263.755 146.808L266.846 148.84C267.515 149.399 267.947 149.814 268.04 150.635C266.549 150.525 265.669 150.28 264.771 149.992C263.644 149.636 259.3 149.441 257.428 148.967C256.082 148.628 247.494 148.264 245.682 148.213C240.889 148.086 224.137 147.544 221.453 148.484C221.91 148.721 220.995 148.535 222.003 148.696C224.535 149.103 231.463 149.221 233.724 149.331C234.596 149.374 234.41 149.441 234.884 149.543L237.992 149.721C238.924 149.789 238.966 149.916 239.424 150L259.258 151.728L268.616 153.82C268.277 154.023 268.861 154.158 266.719 154.065C265.635 154.023 265.482 153.981 264.652 153.777L252.076 152.668C242.523 152.278 232.733 151.838 223.062 152.092C220.877 152.151 218.7 151.948 217.269 152.846L217.159 154.065L249.154 154.878C250.628 154.946 251.051 155.082 252.068 155.234C255.116 155.683 258.275 155.785 261.4 156.31C262.781 156.538 261.324 156.437 262.501 156.614C263.086 156.699 263.738 156.64 264.339 156.758L267.261 157.25C268.777 157.368 268.929 157.546 270.182 157.732C272.156 158.02 274.544 158.698 276.526 158.833C276.415 157.639 276.17 156.225 275.84 155.488C275.806 155.42 275.721 155.183 275.687 155.115L274.273 151.813C274.247 151.762 274.197 151.711 274.171 151.669C274.137 151.626 274.087 151.567 274.061 151.525L270.199 147.265C267.405 145.368 268.048 145.867 264.991 144.487C263.577 143.852 262.281 143.632 260.884 143.141L251.475 141.328C249.586 140.837 247.588 140.905 245.707 140.625L242.218 140.219C241.177 140.143 241.261 139.982 240.601 139.905C238.323 139.626 221.055 139.253 218.387 139.922C218.336 139.931 218.26 139.973 218.201 139.999L218.175 139.99Z" fill="#333333"/>
<path fill-rule="evenodd" clip-rule="evenodd" d="M226.246 184.579C228.05 184.934 248.079 185.713 250.738 185.764L267.269 186.628C268.192 186.713 268.023 186.814 268.438 186.882C269.844 187.119 273.096 186.984 274.756 187.06C274.891 186.501 274.671 186.814 275.162 186.611C275.281 185.231 275.408 184.951 275.907 183.783C275.933 183.732 275.967 183.672 275.984 183.622C276.145 183.224 276.145 183.418 276.195 182.783C273.282 182.453 269.463 182.783 266.685 182.622C265.677 182.563 265.228 182.368 263.78 182.36L224.866 181.792L225.475 183.173C225.501 183.224 225.535 183.283 225.56 183.334L226.238 184.579H226.246Z" fill="#333333"/>
<path fill-rule="evenodd" clip-rule="evenodd" d="M229.168 191.235C231.548 191.362 229.947 191.506 234.232 191.625C236.188 191.676 238.136 191.718 240.093 191.777C243.971 191.887 247.215 192.175 251.271 192.26C253.287 192.302 254.269 192.565 256.327 192.599C260.308 192.666 271.089 193.242 273.214 193.022C273.46 192.014 273.663 191.692 274.036 190.829L274.612 188.576L240.33 188.398C239.026 188.39 239.246 188.203 238.238 188.136C235.646 187.966 230.142 187.848 227.643 188.051L229.168 191.244V191.235Z" fill="#333333"/>
<path fill-rule="evenodd" clip-rule="evenodd" d="M232.97 197.9C239.686 197.951 245.682 198.366 251.797 198.468C255.142 198.527 257.75 198.832 260.85 198.882C264.17 198.933 267.532 198.984 270.851 199.094C271.089 197.875 272.554 195.639 272.308 194.216C259.427 194.174 243.04 193.903 230.853 194.131L232.682 197.485C232.75 197.578 232.835 197.646 232.97 197.9Z" fill="#333333"/>
<path fill-rule="evenodd" clip-rule="evenodd" d="M236.629 203.024C236.832 203.058 268.057 203.667 268.844 203.117C269.192 202.592 269.378 202.084 269.708 201.457L270.53 200.11L234.766 200.009C234.859 200.678 235.088 200.89 235.596 201.609L236.146 202.321C236.392 202.66 236.417 202.761 236.629 203.015V203.024Z" fill="#333333"/>
<path fill-rule="evenodd" clip-rule="evenodd" d="M216.49 190.244C216.49 193.479 216.363 195.512 217.913 198.324L218.582 199.408C218.616 199.45 218.666 199.501 218.7 199.543L219.208 200.06C219.53 200.348 219.293 200.195 219.64 200.39C220.826 201.067 222.215 201.55 223.578 201.567C224.959 201.584 225.128 201.83 225.569 200.932L225.154 200.729C224.671 200.576 222.274 200.026 220.75 198.188C220.343 197.697 220.055 197.087 219.92 196.511L223.206 196.613C222.85 195.766 223.358 196.342 222.13 195.461L221.554 195.021C219.471 193.335 218.633 191.574 218.861 188.635C219.437 188.872 220.453 190.617 221.029 191.108L221.571 191.616C221.605 191.659 221.656 191.718 221.69 191.76C221.935 192.057 221.944 192.158 222.198 192.489L224.374 195.376C224.4 195.419 224.442 195.486 224.476 195.529C224.485 195.546 224.789 195.944 224.789 195.952L226.72 198.315C227.355 199.052 227.245 198.527 227.652 199.441C228.143 199.247 228.431 199.518 227.838 198.569C227.813 198.527 227.754 198.468 227.72 198.425C227.677 198.366 227.525 198.197 227.474 198.137C227.118 197.655 227.406 198.053 227.084 197.527L226.128 195.961C225.984 195.715 225.907 195.529 225.772 195.309L224.764 193.81C223.485 191.709 225.077 193.496 223.011 190.778L217.896 182.597C217.506 182.207 217.777 182.419 217.218 182.216C217.108 183.791 216.761 184.638 216.668 185.874C216.558 187.306 216.507 188.822 216.507 190.253L216.49 190.244Z" fill="#333333"/>
<path fill-rule="evenodd" clip-rule="evenodd" d="M226.111 220.182C226.077 219.428 226.026 218.64 225.924 217.895C225.772 216.726 225.543 217.218 225.543 216.066L227.576 216.057L228.27 216.786C228.888 217.59 228.329 217.853 229.312 219.487C229.617 219.995 229.32 219.292 229.684 220.038L232.284 220.046C232.598 218.234 232.242 218.412 231.954 217.59C231.641 216.701 231.37 215.202 230.497 214.126C226.746 213.982 219.996 213.195 217.261 213.491L217.836 215.659C219.276 220.216 219.835 219.106 222.359 219.801C223.536 220.122 224.679 220.148 226.102 220.19L226.111 220.182Z" fill="#333333"/>
<path fill-rule="evenodd" clip-rule="evenodd" d="M33.7575 199.204C36.7979 209.596 31.7335 209.104 26.4235 209.426C21.7741 209.706 21.935 208.605 21.5624 204.235C21.2321 200.373 21.2321 198.967 25.1532 198.476C29.2098 197.976 31.183 197.307 33.7575 199.196V199.204ZM89.8213 178.261L89.5673 168.352C90.5835 168.708 90.2956 168.657 91.1001 169.157C93.0564 170.368 91.3627 169.656 93.446 170.368L98.739 175.043L98.7898 183.122C96.1052 182.343 92.904 179.641 89.8129 178.261H89.8213ZM93.2258 167.624C93.1157 167.505 92.9294 167.141 92.8871 167.26L89.0845 164.601C86.3152 161.628 80.0991 157.792 76.576 154.87C74.1794 152.88 72.7651 151.999 70.0804 149.983C68.1411 148.527 65.177 146.596 62.9835 145.817C61.3745 147.722 62.1367 147.578 59.5706 148.908L61.2305 149.712C61.6624 153.235 61.4083 158.672 60.6885 161.662L35.3412 163.229C35.9002 159.214 37.9327 154.506 37.3314 150.89L37.0265 149.67C36.6878 154.158 37.4923 150.483 35.5614 151.872L32.0976 163.483C25.3903 164.118 6.7673 164.431 5.66635 172.604C5.14975 176.44 5.61554 180.132 5.37841 183.893L14.5248 183.605C18.8524 191.879 10.2565 190.947 5.82726 191.345L6.03051 195.165C24.0522 193.42 47.0621 189.33 64.347 193.031C56.3694 194.335 43.6576 193.386 34.4859 194.309C24.3571 195.334 14.999 196.664 4.99731 197.968L5.85267 217.277C18.8439 214.067 15.1938 213.11 32.4025 212.094L60.3413 212.39C60.0194 208.495 60.1549 207.038 62.0774 205.031L64.7112 206.14C63.6272 206.97 64.5164 206.081 63.6102 207.063L65.846 207.25C62.4077 209.494 64.6942 208.029 62.9158 211.865L67.6075 211.569C67.616 211.399 67.7346 209.494 67.743 209.485C68.8525 206.293 68.1919 208.012 69.2844 208.994L69.9449 208.232C70.7156 207.478 71.0374 206.852 72.4178 206.801C73.9338 206.742 74.7044 207.732 75.4666 208.401L71.8928 208.562C73.5188 211.467 72.7651 208.715 72.9006 212.162C74.5689 212.407 76.4914 212.763 78.1851 212.941C81.1238 213.246 80.3193 212.34 83.927 211.925L85.9087 209.934L88.6272 210.9L87.9328 211.188C87.1621 213.576 88.8474 211.899 86.6794 213.584L89.4487 214.719L89.7366 213.652L90.6598 214.685L92.5398 212.035C93.446 211.975 94.1997 211.687 95.0212 212.119C97.0961 213.212 95.2075 212.704 94.5978 213.076C96.8081 215.939 100.467 216.93 104.193 216.76C102.77 217.743 104.049 216.015 104.498 215.481C105.641 214.126 105.404 215.024 106.098 215.642C106.471 215.541 107.801 215.16 108.224 215.202C110.993 215.49 108.377 216.032 108.241 216.134C108.317 216.303 108.394 216.396 108.419 216.659C108.673 218.996 107.657 218.725 110.943 218.462C111.112 221.13 111.298 218.352 109.528 219.961L110.977 220.478L111.468 217.234C112.298 217.04 112.755 216.752 113.424 216.811C116.761 217.141 113.644 217.582 113.466 217.709C113.568 219.309 113.136 218.954 114.711 218.852C113.483 220.055 114.161 219.733 115.533 220.351L113.763 220.58C114.601 221.308 113.449 221.13 115.965 221.664L117.328 220.495C117.811 220.139 118.302 219.911 118.963 219.411C122.045 217.091 120.521 219.208 120.318 216.269L113.72 213.584C111.18 213.246 109.681 212.848 107.928 211.645C110.57 211.882 112.857 211.916 114.881 213.703L123.578 215.507C120.834 212.424 122.808 214.906 123.477 213.805C123.697 213.83 125.484 213.974 125.534 213.982C127.093 214.296 126.161 214.084 127.448 214.651L130.015 215.947L129.862 210.146C130.336 207.927 129.981 209.164 131.268 207.826C131.598 210.764 131.2 215.058 132.521 217.421C132.039 213.72 131.878 209.96 131.641 206.233C131.522 204.319 131.403 202.406 131.31 200.483C131.183 197.849 131.742 196.808 129.998 195.563C130.218 199.06 130.082 201.736 131.183 204.336C129.218 203.854 130.328 204.955 129.633 203.82C128.541 202.058 128.93 204.387 129.456 202.168C127.601 201.83 125.755 200.907 125.196 198.62C125.009 197.544 125.052 196.926 124.942 195.783C124.916 195.537 124.755 193.937 124.705 193.793C124.061 191.963 124.434 193.014 123.578 192.192L124.154 199.018C122.223 198.383 118.141 195.885 116.38 194.386L115.897 189.931C115.601 185.434 115.499 189.211 117.337 187.78C115.939 186.467 119.352 186.518 114.72 186.806L115.253 195.266L113.339 193.522C113.246 193.386 113.145 193.132 113.06 192.937C112.001 190.693 107.174 190.304 106.141 187.348L105.785 181.606C106.869 180.175 105.514 181.2 107.699 180.725L107.843 179.396L104.684 180.005C103.592 184.291 106.115 205.327 105.777 207.19C105.404 209.214 106.361 207.241 105.031 208.478L103.126 207.504L100.856 173.578C99.3149 171.638 95.3769 168.716 93.2427 167.582L93.2258 167.624ZM58.639 180.564C60.9934 180.547 61.6031 180.276 62.2552 182.402C64.4317 189.457 58.0801 188.237 51.991 188.271C47.4347 188.296 47.5872 183.52 48.9083 181.894C50.2633 180.217 56.056 180.59 58.639 180.564ZM75.0686 157.834C77.6347 158.291 76.8216 158.283 78.761 159.968C88.9067 168.818 87.611 161.476 87.865 176.559C84.2742 174.992 77.9903 170.868 75.0517 168.843L75.0686 157.834ZM65.177 151.406C68.014 151.66 69.6485 153.777 71.8674 154.938V165.964C69.242 165.558 67.1333 164.143 64.9737 163.169L65.177 151.415V151.406ZM107.699 180.759C108.148 181.555 107.75 181.318 109.02 182.326L114.567 186.272L114.915 193.361L113.068 192.963C113.153 193.166 113.255 193.42 113.348 193.547L115.262 195.292L114.728 186.831C119.361 186.543 115.948 186.493 117.345 187.805C118.353 189.736 121.707 191.701 123.587 192.226C124.434 193.047 124.061 191.997 124.713 193.827C124.764 193.971 124.933 195.571 124.95 195.817C125.06 196.96 125.026 197.57 125.204 198.654L124.95 194.047C128.549 195.317 129.65 197.189 129.456 202.202C128.939 204.421 128.549 202.092 129.633 203.854C130.328 204.98 129.218 203.879 131.183 204.37C130.082 201.762 130.218 199.086 129.998 195.597C129.481 194.148 129.464 194.673 127.999 193.632L112.171 181.496C111.104 180.708 110.384 180.378 109.334 179.574L107.835 179.43L107.691 180.759H107.699ZM105.031 208.512C106.353 207.275 105.404 209.257 105.777 207.224C106.115 205.361 103.6 184.325 104.684 180.039L107.843 179.43L109.342 179.574L107.741 178.278C107.284 177.905 106.835 177.49 106.437 177.092C104.811 175.517 105.98 175.661 103.202 175.398L105.04 208.495L105.031 208.512ZM113.703 213.61L114.872 213.728C112.848 211.941 110.562 211.908 107.919 211.67C109.672 212.873 111.163 213.271 113.712 213.61H113.703ZM138.737 203.786C139.754 204.48 139.779 204.336 140.423 205.505L142.786 206.843L143.15 210.324L140.804 208.91C139.423 208.232 139.567 208.368 138.424 207.411C136.671 206.902 136.451 206.657 134.918 205.429L134.647 200.89C136.612 201.83 136.951 202.524 138.746 203.786H138.737ZM132.521 217.463C131.192 215.1 131.598 210.807 131.268 207.868C129.981 209.206 130.328 207.97 129.862 210.188L130.015 215.99L127.448 214.694C126.161 214.126 127.093 214.338 125.534 214.025C125.484 214.016 123.697 213.872 123.477 213.847C122.808 214.948 120.843 212.467 123.578 215.549L146.198 223.654C146.249 220.368 145.267 207.859 143.81 205.852C142.608 204.192 134.334 197.976 132.572 197.29L133.631 215.761C133.47 217.59 133.885 216.498 132.53 217.472L132.521 217.463ZM138.534 227.939L141.676 228.456C141.354 227.152 141.507 227.643 141.998 226.372C139.398 226.457 141.303 226.61 138.534 227.948V227.939ZM135.663 225.686L136.358 225.83L137.62 225.111C136.629 224.56 138.746 224.298 136.392 224.662C134.757 224.916 136.197 224.475 135.663 225.686ZM131.2 225.398C131.734 225.712 131.556 225.763 132.572 226.034C133.165 226.195 133.775 226.237 134.503 226.381L133.698 225.365C135.003 223.798 134.401 224.84 134.706 223.679C131.793 223.84 133.758 224.433 131.2 225.398ZM107.115 219.987L109.528 219.97C111.298 218.361 111.112 221.147 110.943 218.471C107.657 218.725 108.673 219.004 108.419 216.667C108.394 216.405 108.317 216.311 108.241 216.142C107.437 217.353 106.903 217.895 107.115 219.987ZM106.098 215.651L105.59 218.92C106.268 220.393 105.667 219.233 107.123 219.987C106.911 217.895 107.445 217.353 108.25 216.142C108.385 216.04 111.002 215.498 108.233 215.21C107.809 215.168 106.48 215.549 106.107 215.651H106.098ZM105.59 218.92L106.098 215.651C105.404 215.033 105.641 214.143 104.498 215.49C104.049 216.015 102.77 217.743 104.193 216.769C100.467 216.938 96.8081 215.947 94.5978 213.085C92.6499 214.008 92.9548 214.321 92.6415 216.421C95.0974 217.641 103.422 219.208 105.59 218.928V218.92ZM90.6682 214.694L89.7451 213.661L89.4572 214.728L86.6879 213.593C88.8559 211.908 87.1706 213.584 87.9412 211.196L85.7309 211.925L84.7739 214.939C86.51 216.015 85.8156 215.668 87.7803 216.049C88.7204 216.235 89.6435 216.396 90.8969 216.54L90.6682 214.702V214.694ZM83.9439 211.941C80.3278 212.356 81.1323 213.263 78.2021 212.958C76.5083 212.78 74.5943 212.416 72.9175 212.179C72.7735 208.732 73.5357 211.484 71.9097 208.579C71.6387 210.214 70.7664 211.298 71.2915 213.593L82.5889 215.194C82.9531 214.728 82.9785 214.872 83.3511 213.923C83.4612 213.652 83.7407 212.543 83.9524 211.95L83.9439 211.941ZM69.2928 209.011C68.2004 208.029 68.8525 206.301 67.7515 209.502C67.743 209.519 67.6245 211.416 67.616 211.586L62.9243 211.882C64.7027 208.046 62.4161 209.511 65.8545 207.267L63.6187 207.08C61.5862 208.207 61.9503 210.205 62.1282 212.399C63.9151 213.017 66.8199 213.22 69.2505 213.339L69.2844 209.011H69.2928ZM112.526 220.995L113.763 220.605L115.533 220.376C114.161 219.758 113.492 220.072 114.711 218.877C113.136 218.979 113.568 219.335 113.466 217.734L112.281 218.886L112.518 221.003L112.526 220.995ZM110.993 220.487L112.526 220.995L112.289 218.877L113.475 217.726C113.661 217.599 116.769 217.15 113.432 216.828C112.763 216.76 112.306 217.048 111.476 217.251L110.985 220.495L110.993 220.487ZM115.965 221.689L118.886 222.358C121.181 219.953 118.387 219.369 122.401 219.309C121.19 220.461 120.987 220.3 120.58 222.341L123.417 223.544C123.536 223.332 123.654 222.959 123.705 223.061C124.247 224.154 123.663 219.919 126.966 220.774C124.933 222.333 125.213 221.088 125.374 223.959L131.209 225.39C133.766 224.416 131.801 223.823 134.715 223.671C134.41 224.831 135.011 223.789 133.707 225.356L134.511 226.372C134.537 226.745 134.503 226.923 135.13 226.389C135.18 226.347 135.367 226.161 135.409 226.11C135.468 226.051 135.621 225.839 135.672 225.686C136.205 224.475 134.774 224.916 136.4 224.662C138.754 224.298 136.629 224.56 137.628 225.111L136.366 225.83L136.265 227.304L138.534 227.931C141.295 226.593 139.398 226.44 141.998 226.355C141.507 227.626 141.354 227.135 141.676 228.439C144.589 228.608 141.397 228.82 144.318 227.211C142.675 229.887 142.701 229.641 146.249 229.87L146.41 226.076C142.345 223.713 125.882 217.506 120.301 216.278C120.496 219.216 122.028 217.099 118.946 219.419C118.285 219.919 117.794 220.148 117.311 220.503L115.948 221.672L115.965 221.689ZM37.4076 144.716C37.3822 144.656 36.1457 145.478 36.9926 142.59C37.1451 142.065 37.4669 141.684 37.9327 141.379C41.7352 138.889 43.0902 146.308 37.3991 144.716H37.4076ZM18.412 157.165L19.098 157.614C21.5031 152.888 27.5245 151.084 34.9347 150.195C35.8747 150.94 35.2396 150.068 35.5868 151.872C37.5092 150.483 36.7047 154.15 37.0519 149.67L37.3568 150.89C41.1254 147.925 53.9812 148.942 59.596 148.916C62.1621 147.578 61.3999 147.731 63.0089 145.825C61.3829 145.266 61.8233 145.215 59.3843 145.012C55.6326 144.699 50.0601 145.325 46.4777 144.792C46.2406 141.819 46.7318 139.677 43.8863 139.202C41.8876 138.864 37.5431 139.516 35.5783 140.058C34.9516 140.888 34.6044 141.362 34.0878 142.853C31.5048 150.322 28.7948 144.165 23.4763 149.763C21.8927 151.432 19.1064 154.988 18.412 157.173V157.165Z" fill="#333333"/>
<path fill-rule="evenodd" clip-rule="evenodd" d="M4.74326 189.973C9.21482 189.321 9.47735 185.79 4.46379 185.561C3.26121 187.678 3.02409 187.831 4.74326 189.973Z" fill="#333333"/>
<path fill-rule="evenodd" clip-rule="evenodd" d="M51.0848 186.781L54.4639 186.196C54.7264 184.799 54.972 184.037 53.8033 182.715C50.348 181.801 50.1617 183.799 51.0763 186.781H51.0848Z" fill="#333333"/>
<path fill-rule="evenodd" clip-rule="evenodd" d="M9.79069 188.923L13.1105 189.109C13.4577 186.865 13.8303 187.424 12.7379 185.578C9.85844 184.206 8.31711 186.306 9.79069 188.923Z" fill="#333333"/>
<path fill-rule="evenodd" clip-rule="evenodd" d="M56.344 186.154C59.0117 186.831 60.7647 186.12 59.8162 182.809C58.4697 182.207 57.6482 182.224 56.0391 182.868L56.344 186.154Z" fill="#333333"/>
<path fill-rule="evenodd" clip-rule="evenodd" d="M138.407 207.419C139.55 208.385 139.406 208.241 140.787 208.918L140.414 205.514C139.771 204.336 139.745 204.489 138.729 203.794C138.975 205.471 139.686 206.877 138.416 207.419H138.407Z" fill="#333333"/>
<path fill-rule="evenodd" clip-rule="evenodd" d="M19.0641 157.622L18.3781 157.173C16.1508 158.384 16.6759 157.639 16.3032 160.307C17.3025 159.909 17.0231 160.4 17.9462 159.502C19.5553 157.944 18.3357 159.299 19.0641 157.622Z" fill="#333333"/>
</g>
<defs>
<linearGradient id="paint0_linear_6_2" x1="77.9056" y1="251.499" x2="144.903" y2="19.5715" gradientUnits="userSpaceOnUse">
<stop stop-color="#950204"/>
<stop offset="0.690196" stop-color="#DE0204"/>
<stop offset="1" stop-color="#FF3333"/>
</linearGradient>
<linearGradient id="paint1_linear_6_2" x1="143.895" y1="100.458" x2="144.708" y2="-9.61215" gradientUnits="userSpaceOnUse">
<stop stop-color="#333333"/>
<stop offset="0.670588" stop-color="#989898"/>
<stop offset="1" stop-color="#FEFEFE"/>
</linearGradient>
<linearGradient id="paint2_linear_6_2" x1="707.328" y1="107.563" x2="338.289" y2="98.9755" gradientUnits="userSpaceOnUse">
<stop stop-color="#333333"/>
<stop offset="0.780392" stop-color="#666666"/>
<stop offset="1" stop-color="#999999"/>
</linearGradient>
<clipPath id="clip0_6_2">
<rect width="698.699" height="283.579" fill="white"/>
</clipPath>
</defs>
</svg>
