<svg width="40" height="40" viewBox="0 0 40 40" fill="none" xmlns="http://www.w3.org/2000/svg">
<path d="M29.6667 32L26.6667 18.3333L32.5 12.5C35 10 35.8333 6.66667 35 5C33.3333 4.16667 30 5 27.5 7.5L21.6667 13.3333L8 10.3333C7.16667 10.1667 6.5 10.5 6.16667 11.1667L5.66667 12C5.33333 12.8333 5.5 13.6667 6.16667 14.1667L15 20L11.6667 25H6.66667L5 26.6667L10 30L13.3333 35L15 33.3333V28.3333L20 25L25.8333 33.8333C26.3333 34.5 27.1667 34.6667 28 34.3333L28.8333 34C29.5 33.5 29.8333 32.8333 29.6667 32Z" stroke="#0089CB" stroke-width="2" stroke-linecap="round" stroke-linejoin="round"/>
</svg>
