<svg width="40" height="40" viewBox="0 0 40 40" fill="none" xmlns="http://www.w3.org/2000/svg">
<path d="M13.3925 33.5666H26.6083M11.8917 36.25L14.895 30.8775M25.1033 30.8775L28.1067 36.25M11.2133 6.5658H28.7867C29.0586 6.56525 29.328 6.61842 29.5793 6.72227C29.8307 6.82611 30.0591 6.97858 30.2513 7.17091C30.4436 7.36325 30.5959 7.59167 30.6997 7.84306C30.8034 8.09445 30.8565 8.36385 30.8558 8.6358V28.8083C30.8565 29.0802 30.8034 29.3497 30.6997 29.601C30.5959 29.8524 30.4436 30.0808 30.2513 30.2732C30.0591 30.4655 29.8307 30.618 29.5793 30.7218C29.328 30.8257 29.0586 30.8788 28.7867 30.8783H11.2133C10.9414 30.8788 10.672 30.8257 10.4207 30.7218C10.1693 30.618 9.94096 30.4655 9.7487 30.2732C9.55644 30.0808 9.40406 29.8524 9.30032 29.601C9.19658 29.3497 9.14351 29.0802 9.14417 28.8083V8.6358C9.14351 8.36392 9.19655 8.09458 9.30024 7.84325C9.40393 7.59192 9.55623 7.36354 9.7484 7.17121C9.94057 6.97888 10.1688 6.8264 10.4201 6.72251C10.6713 6.61861 10.9406 6.56536 11.2125 6.5658H11.2133Z" stroke="#0089CB" stroke-linecap="round" stroke-linejoin="round"/>
<path d="M11.675 6.5658H28.3242V19.4525H11.675V6.5658Z" stroke="#0089CB" stroke-linecap="round" stroke-linejoin="round"/>
<path d="M14.6908 26.4233C16.1848 26.4233 17.3958 25.2122 17.3958 23.7183C17.3958 22.2244 16.1848 21.0133 14.6908 21.0133C13.1969 21.0133 11.9858 22.2244 11.9858 23.7183C11.9858 25.2122 13.1969 26.4233 14.6908 26.4233Z" stroke="#0089CB" stroke-linecap="round" stroke-linejoin="round"/>
<path d="M25.3092 26.4233C26.8031 26.4233 28.0142 25.2122 28.0142 23.7183C28.0142 22.2244 26.8031 21.0133 25.3092 21.0133C23.8152 21.0133 22.6042 22.2244 22.6042 23.7183C22.6042 25.2122 23.8152 26.4233 25.3092 26.4233Z" stroke="#0089CB" stroke-linecap="round" stroke-linejoin="round"/>
<path d="M13.7675 3.75H26.2333M22.8017 3.75V6.56583M17.1983 3.75V6.56583M9.14417 27.9308H30.8558M26.5567 23.9417C26.5104 23.644 26.3592 23.3728 26.1304 23.1768C25.9017 22.9809 25.6104 22.8732 25.3092 22.8732C25.008 22.8732 24.7167 22.9809 24.4879 23.1768C24.2591 23.3728 24.108 23.644 24.0617 23.9417" stroke="#0089CB" stroke-linecap="round" stroke-linejoin="round"/>
<path d="M13.9683 23.92C14.3135 23.92 14.5933 23.6402 14.5933 23.295C14.5933 22.9499 14.3135 22.67 13.9683 22.67C13.6231 22.67 13.3433 22.9499 13.3433 23.295C13.3433 23.6402 13.6231 23.92 13.9683 23.92Z" fill="#0089CB"/>
<path d="M24.2233 27.9308C24.1908 28.7575 24.2167 29.1658 23.655 29.5116H16.345C15.7833 29.1658 15.8092 28.7575 15.7767 27.9308" stroke="#0089CB" stroke-linecap="round" stroke-linejoin="round"/>
</svg>
