<svg width="40" height="40" viewBox="0 0 40 40" fill="none" xmlns="http://www.w3.org/2000/svg">
<path d="M2.57812 9.375V19.3475C2.97055 19.493 3.30547 19.7462 3.56875 20.0258C3.97797 20.4603 4.27453 20.9721 4.54516 21.4509C4.8157 21.9298 5.06156 22.3795 5.27508 22.6577C5.48883 22.9358 5.59516 22.9688 5.625 22.9688C5.67109 22.9688 5.68594 22.9746 5.80937 22.8281C5.93305 22.6815 6.08828 22.4059 6.25336 22.0934C6.41852 21.7809 6.59367 21.4315 6.86523 21.1093C7.1368 20.787 7.5818 20.4687 8.125 20.4687C8.6682 20.4687 9.11328 20.787 9.38477 21.1093C9.65633 21.4314 9.83148 21.7808 9.99664 22.0933C10.1618 22.4058 10.317 22.6814 10.4405 22.828C10.564 22.9745 10.5788 22.9686 10.6249 22.9686C10.671 22.9686 10.6859 22.9745 10.8093 22.828C10.933 22.6813 11.0882 22.4057 11.2533 22.0932C11.4184 21.7807 11.5936 21.4313 11.8652 21.1091C12.1367 20.7869 12.5817 20.4685 13.1249 20.4685C13.6681 20.4685 14.1132 20.7869 14.3847 21.1091C14.6562 21.4312 14.8314 21.7806 14.9966 22.0931C15.1617 22.4056 15.3169 22.6813 15.4405 22.8278C15.5639 22.9743 15.5787 22.9684 15.6248 22.9684C15.6709 22.9684 15.6858 22.9743 15.8092 22.8278C15.9329 22.6812 16.0881 22.4055 16.2532 22.093C16.4184 21.7805 16.5935 21.4312 16.8651 21.109C17.1366 20.7867 17.5816 20.4684 18.1248 20.4684C18.668 20.4684 19.1131 20.7867 19.3846 21.109C19.6562 21.4311 19.8313 21.7805 19.9965 22.093C20.1616 22.4055 20.3168 22.6811 20.4404 22.8277C20.5638 22.9741 20.5787 22.9683 20.6248 22.9683C20.6709 22.9683 20.6857 22.9741 20.8091 22.8277C20.9328 22.681 21.088 22.4054 21.2531 22.0929C21.4183 21.7804 21.5934 21.431 21.865 21.1088C22.1366 20.7866 22.5816 20.4682 23.1248 20.4682C23.668 20.4682 24.0973 20.726 24.4548 21.0154C24.6222 21.1508 24.7771 21.2996 24.9216 21.4542V9.375H2.57812ZM27.5781 13.2326V24.1912L28.2031 24.1891V25.4688H28.5008C29.2272 23.9911 30.7488 22.9688 32.5 22.9688C34.0205 22.9688 35.3677 23.7396 36.1719 24.9098V20.4688H37.4219V17.6348L35.2144 14.3234L27.5781 13.2326ZM29.0268 14.7573L34.087 15.3609L36.0245 18.1351V19.4425H29.0268V14.7572V14.7573ZM2.57812 21.0272V22.9688H3.79195C3.62633 22.6959 3.47438 22.4144 3.32086 22.1428C3.07297 21.704 2.82086 21.297 2.57812 21.0272ZM8.125 21.875C8.07891 21.875 8.06406 21.8691 7.94063 22.0156C7.81695 22.1623 7.66172 22.4379 7.49664 22.7504C7.45914 22.8215 7.4207 22.8947 7.38117 22.9688H8.86867C8.82922 22.8947 8.79078 22.8214 8.75328 22.7504C8.58812 22.4379 8.43297 22.1623 8.30937 22.0157C8.18594 21.8692 8.17109 21.8751 8.125 21.8751V21.875ZM13.125 21.875C13.0789 21.875 13.0641 21.8691 12.9406 22.0156C12.817 22.1623 12.6617 22.4379 12.4966 22.7504C12.4591 22.8215 12.4207 22.8947 12.3812 22.9688H13.8687C13.8292 22.8947 13.7908 22.8214 13.7533 22.7504C13.5881 22.4379 13.433 22.1623 13.3094 22.0157C13.1859 21.8692 13.1711 21.8751 13.125 21.8751V21.875ZM18.125 21.875C18.0789 21.875 18.0641 21.8691 17.9406 22.0156C17.817 22.1623 17.6617 22.4379 17.4966 22.7504C17.4591 22.8215 17.4207 22.8947 17.3812 22.9688H18.8687C18.8292 22.8947 18.7908 22.8214 18.7533 22.7504C18.5881 22.4379 18.433 22.1623 18.3094 22.0157C18.1859 21.8692 18.1711 21.8751 18.125 21.8751V21.875ZM23.125 21.875C23.0789 21.875 23.0641 21.8691 22.9406 22.0156C22.817 22.1623 22.6617 22.4379 22.4966 22.7504C22.4591 22.8215 22.4207 22.8947 22.3812 22.9688H24.3466C24.3172 22.9288 24.2888 22.8889 24.2583 22.8488C24.0405 22.564 23.7921 22.2884 23.5705 22.109C23.3489 21.9297 23.1711 21.875 23.125 21.875ZM37.5781 21.875V25.4688H38.6719V21.875H37.5781ZM5.625 24.2188C3.8643 24.2188 2.42188 25.6612 2.42188 27.4219C2.42188 29.1826 3.8643 30.625 5.625 30.625C7.3857 30.625 8.82812 29.1826 8.82812 27.4219C8.82812 25.6612 7.3857 24.2188 5.625 24.2188ZM13.75 24.2188C11.9893 24.2188 10.5469 25.6612 10.5469 27.4219C10.5469 29.1826 11.9893 30.625 13.75 30.625C15.5107 30.625 16.9531 29.1826 16.9531 27.4219C16.9531 25.6612 15.5107 24.2188 13.75 24.2188ZM32.5 24.2188C30.7393 24.2188 29.2969 25.6612 29.2969 27.4219C29.2969 29.1826 30.7393 30.625 32.5 30.625C34.2607 30.625 35.7031 29.1826 35.7031 27.4219C35.7031 25.6612 34.2607 24.2188 32.5 24.2188ZM1.32812 24.375V25.4688H1.62578C1.82306 25.0684 2.07901 24.6998 2.38516 24.375H1.32812ZM8.86484 24.375C9.17099 24.6998 9.42694 25.0684 9.62422 25.4688H9.75078C9.94806 25.0684 10.204 24.6998 10.5102 24.375H8.86484ZM16.9898 24.375C17.296 24.6998 17.5519 25.0684 17.7492 25.4688H18.0469V24.375H16.9898ZM26.7969 25.5998L19.4531 25.6229V27.9666L26.7969 27.9436V25.5998ZM5.625 25.625C6.62578 25.625 7.42188 26.4211 7.42188 27.4219C7.42188 28.4227 6.62578 29.2188 5.625 29.2188C4.62422 29.2188 3.82812 28.4227 3.82812 27.4219C3.82812 26.4211 4.62422 25.625 5.625 25.625ZM13.75 25.625C14.7508 25.625 15.5469 26.4211 15.5469 27.4219C15.5469 28.4227 14.7508 29.2188 13.75 29.2188C12.7492 29.2188 11.9531 28.4227 11.9531 27.4219C11.9531 26.4211 12.7492 25.625 13.75 25.625ZM32.5 25.625C33.5008 25.625 34.2969 26.4211 34.2969 27.4219C34.2969 28.4227 33.5008 29.2188 32.5 29.2188C31.4992 29.2188 30.7031 28.4227 30.7031 27.4219C30.7031 26.4211 31.4992 25.625 32.5 25.625Z" fill="#0089CB"/>
</svg>
