<svg width="28" height="28" viewBox="0 0 28 28" fill="none" xmlns="http://www.w3.org/2000/svg">
<path d="M23.9196 4.03196C22.6296 2.74886 21.0931 1.73153 19.3997 1.0393C17.7063 0.347066 15.8898 -0.00620732 14.0563 8.25353e-05C6.37387 8.25353e-05 0.112563 6.16567 0.112563 13.7306C0.112563 16.1553 0.759799 18.5107 1.96985 20.589L0 27.7106L7.38693 25.7986C9.42714 26.8932 11.7206 27.4751 14.0563 27.4751C21.7387 27.4751 28 21.3095 28 13.7445C28 10.0729 26.5508 6.6229 23.9196 4.03196ZM14.0563 25.1474C11.9739 25.1474 9.93367 24.5932 8.14673 23.554L7.72462 23.3046L3.33467 24.4408L4.50251 20.2288L4.22111 19.7993C3.06417 17.98 2.44985 15.8772 2.44824 13.7306C2.44824 7.44036 7.65427 2.31391 14.0422 2.31391C17.1377 2.31391 20.0503 3.50547 22.2312 5.66689C23.311 6.72538 24.1668 7.9844 24.7489 9.37099C25.331 10.7576 25.6278 12.2441 25.6221 13.7445C25.6503 20.0348 20.4442 25.1474 14.0563 25.1474ZM20.4161 16.6125C20.0643 16.4463 18.3477 15.615 18.0382 15.4903C17.7146 15.3794 17.4894 15.324 17.2502 15.6565C17.0111 16.0029 16.3497 16.7788 16.1528 17.0005C15.9558 17.236 15.7447 17.2637 15.393 17.0836C15.0412 16.9174 13.9156 16.5433 12.593 15.3794C11.5518 14.465 10.8623 13.3427 10.6513 12.9963C10.4543 12.6499 10.6231 12.4698 10.806 12.2897C10.9608 12.1373 11.1578 11.8879 11.3266 11.6939C11.4955 11.5 11.5658 11.3475 11.6784 11.1259C11.791 10.8903 11.7347 10.6963 11.6503 10.5301C11.5658 10.3638 10.8623 8.67348 10.5809 7.98072C10.2995 7.31566 10.004 7.39879 9.79296 7.38494H9.11759C8.87839 7.38494 8.51256 7.46807 8.18894 7.81445C7.8794 8.16083 6.97889 8.99215 6.97889 10.6825C6.97889 12.3728 8.23116 14.0078 8.4 14.2294C8.56884 14.465 10.8623 17.9288 14.3518 19.4113C15.1819 19.7715 15.8291 19.9794 16.3357 20.1318C17.1658 20.395 17.9256 20.3535 18.5307 20.2703C19.206 20.1733 20.599 19.439 20.8804 18.6354C21.1759 17.8318 21.1759 17.1529 21.0774 17.0005C20.9789 16.8481 20.7678 16.7788 20.4161 16.6125Z" fill="white"/>
</svg>
