<svg width="28" height="28" viewBox="0 0 28 28" fill="none" xmlns="http://www.w3.org/2000/svg">
<path d="M14 9.69872C12.8861 9.69872 11.8178 10.1366 11.0302 10.9162C10.2425 11.6957 9.8 12.7529 9.8 13.8553C9.8 14.9577 10.2425 16.0149 11.0302 16.7945C11.8178 17.574 12.8861 18.0119 14 18.0119C15.1139 18.0119 16.1822 17.574 16.9698 16.7945C17.7575 16.0149 18.2 14.9577 18.2 13.8553C18.2 12.7529 17.7575 11.6957 16.9698 10.9162C16.1822 10.1366 15.1139 9.69872 14 9.69872ZM14 6.92765C15.8565 6.92765 17.637 7.65753 18.9497 8.95672C20.2625 10.2559 21 12.018 21 13.8553C21 15.6926 20.2625 17.4547 18.9497 18.7539C17.637 20.0531 15.8565 20.783 14 20.783C12.1435 20.783 10.363 20.0531 9.05025 18.7539C7.7375 17.4547 7 15.6926 7 13.8553C7 12.018 7.7375 10.2559 9.05025 8.95672C10.363 7.65753 12.1435 6.92765 14 6.92765ZM23.1 6.58127C23.1 7.0406 22.9156 7.48112 22.5874 7.80592C22.2592 8.13072 21.8141 8.31318 21.35 8.31318C20.8859 8.31318 20.4408 8.13072 20.1126 7.80592C19.7844 7.48112 19.6 7.0406 19.6 6.58127C19.6 6.12194 19.7844 5.68142 20.1126 5.35662C20.4408 5.03183 20.8859 4.84936 21.35 4.84936C21.8141 4.84936 22.2592 5.03183 22.5874 5.35662C22.9156 5.68142 23.1 6.12194 23.1 6.58127ZM14 2.77106C10.5364 2.77106 9.9708 2.78076 8.3594 2.85142C7.2618 2.90269 6.5254 3.04817 5.8422 3.31142C5.27046 3.51916 4.75358 3.85214 4.3302 4.28545C3.89201 4.70443 3.55509 5.21595 3.3446 5.78182C3.0786 6.46073 2.9316 7.18813 2.8812 8.273C2.8084 9.80263 2.7986 10.3374 2.7986 13.8553C2.7986 17.2845 2.8084 17.8429 2.8798 19.4376C2.9316 20.5225 3.0786 21.2527 3.3432 21.9274C3.5812 22.5301 3.8612 22.9638 4.326 23.4238C4.7978 23.8893 5.236 24.1678 5.838 24.3978C6.5296 24.6624 7.266 24.8093 8.358 24.8592C9.9036 24.9312 10.444 24.9396 13.9986 24.9396C17.4636 24.9396 18.0278 24.9299 19.6392 24.8592C20.734 24.8079 21.4704 24.6624 22.155 24.4006C22.7262 24.1918 23.2429 23.859 23.667 23.4266C24.1388 22.961 24.4202 22.5273 24.6526 21.9302C24.9186 21.2485 25.067 20.5197 25.1174 19.4362C25.1902 17.908 25.1986 17.3718 25.1986 13.8553C25.1986 10.4275 25.1888 9.86775 25.1174 8.273C25.0656 7.18952 24.9172 6.45796 24.6526 5.78182C24.4416 5.21655 24.1053 4.70524 23.6684 4.28545C23.2452 3.85156 22.7283 3.51809 22.1564 3.31003C21.4704 3.04678 20.734 2.9013 19.6392 2.85142C18.095 2.77937 17.556 2.77106 14 2.77106ZM14 0C17.8038 0 18.2784 0.0138552 19.7722 0.0831318C21.2618 0.152408 22.2782 0.383792 23.17 0.727404C24.094 1.07933 24.8724 1.55595 25.6508 2.32492C26.3627 3.01754 26.9135 3.85536 27.265 4.78008C27.6108 5.66266 27.846 6.66856 27.916 8.14415C27.9818 9.62113 28 10.0908 28 13.8553C28 17.6198 27.986 18.0895 27.916 19.5665C27.846 21.0421 27.6108 22.0466 27.265 22.9305C26.9145 23.8557 26.3635 24.6938 25.6508 25.3857C24.9507 26.09 24.1042 26.6351 23.17 26.9832C22.2782 27.3254 21.2618 27.5582 19.7722 27.6275C18.2784 27.6926 17.8038 27.7106 14 27.7106C10.1962 27.7106 9.7216 27.6968 8.2278 27.6275C6.7382 27.5582 5.7232 27.3254 4.83 26.9832C3.89526 26.6361 3.04854 26.0909 2.3492 25.3857C1.6372 24.6932 1.08634 23.8553 0.735 22.9305C0.3878 22.0479 0.154 21.0421 0.0840003 19.5665C0.0168003 18.0895 0 17.6198 0 13.8553C0 10.0908 0.0140003 9.62113 0.0840003 8.14415C0.154 6.66717 0.3878 5.66405 0.735 4.78008C1.08533 3.85479 1.63633 3.01675 2.3492 2.32492C3.04874 1.62001 3.8954 1.0748 4.83 0.727404C5.7218 0.383792 6.7368 0.152408 8.2278 0.0831318C9.7216 0.0180118 10.1962 0 14 0Z" fill="white"/>
</svg>
